<svg id="Capa_1" enable-background="new 0 0 512 512" height="128" viewBox="0 0 512 512" width="128" xmlns="http://www.w3.org/2000/svg"><g><path d="m0 256.388c-.209-140.838 114.45-256.003 255.287-256.387 57.943-.158 111.42 18.935 154.397 51.244 5.595 4.206 7.691 11.598 5.324 18.185-9.715 27.039-15.008 56.186-15.008 86.57 0 77.149 34.127 146.326 88.108 193.262 2.84 2.469 3.758 6.496 2.239 9.939-11.681 26.486-27.719 50.617-47.208 71.485-11.512 12.327-27.632 19.314-44.498 19.314h-286.174c-16.144 0-31.614-6.6-42.693-18.341-43.175-45.756-69.673-107.419-69.774-175.271z" fill="transparent"/><path d="m430 410h-180v-60h180z" fill="#a2abb8"/><path d="m195 400h272.69c-8.66 12.706-18.434 24.593-29.182 35.518-2.822 2.869-6.683 4.482-10.707 4.482h-247.801v-25c0-8.284 6.716-15 15-15zm170-40h-280c-8.284 0-15-6.716-15-15v-280c0-8.284 6.716-15 15-15h280c8.284 0 15 6.716 15 15v280c0 8.284-6.716 15-15 15z" fill="#c8d2dc"/><path d="m503.935 320c-3.557 13.819-8.238 27.187-13.942 40h-274.993c-8.284 0-15-6.716-15-15v-280c0-8.284 6.716-15 15-15h193.014c15.341 11.34 29.371 24.353 41.82 38.769v216.231c0 8.284 6.716 15 15 15z" fill="#dce6eb"/><path d="m345 70h-10c-2.761 0-5-2.239-5-5 0-2.761 2.239-5 5-5h10c2.761 0 5 2.239 5 5 0 2.761-2.239 5-5 5z" fill="#a2abb8"/><path d="m450.891 90c10.856 12.733 20.486 26.543 28.708 41.247.646 1.156-2.727 2.752-2.098 3.919 3.931 7.294 7.611 14.802 10.833 22.5.558 1.333 5.023 2.237 5.559 3.581 2.447 6.137 4.663 12.391 6.637 18.751.425 1.368-3.599 3.79-3.196 5.168 2.094 7.172 3.865 12.416 5.333 19.833.263 1.327 4.97 3.666 5.212 5 2.708 14.923 4.122 30.297 4.122 46 0 22.099-2.8 43.544-8.065 64h-393.936v-229.999z" fill="#c2eaf2"/><path d="m370 320h-260v-230h260z" fill="#fff5f5"/><path d="m505.744 312.5c-1.14 5.058-2.429 10.06-3.863 15h-391.881c-4.142 0-7.5-3.357-7.5-7.5v-230c0-4.143 3.358-7.5 7.5-7.5h334.24c4.456 4.832 8.728 9.835 12.805 15h-339.545v215z" fill="#5f6c75"/><path d="m334 215v50.189c0 5.523-4.477 10-10 10h-170c-5.523 0-10-4.477-10-10v-50.189c0-52.467 42.533-95 95-95 52.467 0 95 42.533 95 95z" fill="#c2eaf2"/><path d="m262.009 187.733v-40.733c0-4.142 3.358-7.5 7.5-7.5 4.142 0 7.5 3.358 7.5 7.5v40.733c0 4.142-3.358 7.5-7.5 7.5-4.142 0-7.5-3.358-7.5-7.5z" fill="#7cd2e3"/><path d="m282.105 272.938h-88.924v-80.278h88.924z" fill="#958fca"/><path d="m312.119 282.689h-148.952c-4.142 0-7.5-3.358-7.5-7.5 0-4.142 3.358-7.5 7.5-7.5h148.952c4.142 0 7.5 3.358 7.5 7.5 0 4.143-3.358 7.5-7.5 7.5z" fill="#8078bf"/><path d="m252.404 248.237h-29.522c-2.761 0-5-2.239-5-5v-20.876c0-2.761 2.239-5 5-5h29.522c2.761 0 5 2.239 5 5v20.876c0 2.762-2.239 5-5 5z" fill="#ffc14f"/><path d="m172.929 198.365 62.312-53.061c1.384-1.179 3.42-1.179 4.804 0l62.312 53.061c2.624 2.234 1.044 6.526-2.402 6.526h-124.624c-3.446 0-5.026-4.292-2.402-6.526z" fill="#e5554e"/><path d="m507.878 210h-104.128c-7.594 0-13.75-6.156-13.75-13.75v-2.5c0-7.594 6.156-13.75 13.75-13.75h96.78c3.031 9.763 5.493 19.776 7.348 30zm-117.878-65v2.5c0 7.594 6.156 13.75 13.75 13.75h90.143c-4.126-10.35-8.907-20.367-14.293-30h-75.85c-7.594 0-13.75 6.156-13.75 13.75z" fill="#fff5f5"/><path d="m436.25 270h-32.5c-7.594 0-13.75-6.156-13.75-13.75v-2.5c0-7.594 6.156-13.75 13.75-13.75h32.5c7.594 0 13.75 6.156 13.75 13.75v2.5c0 7.594-6.156 13.75-13.75 13.75z" fill="#fb5858"/><path d="m440 195c0 4.142-3.358 7.5-7.5 7.5s-7.5-3.358-7.5-7.5 3.358-7.5 7.5-7.5 7.5 3.358 7.5 7.5zm-32.5-56.25c-4.142 0-7.5 3.358-7.5 7.5s3.358 7.5 7.5 7.5 7.5-3.358 7.5-7.5-3.358-7.5-7.5-7.5zm0 48.75c-4.142 0-7.5 3.358-7.5 7.5s3.358 7.5 7.5 7.5 7.5-3.358 7.5-7.5-3.358-7.5-7.5-7.5zm75 0c-4.142 0-7.5 3.358-7.5 7.5s3.358 7.5 7.5 7.5 7.5-3.358 7.5-7.5-3.358-7.5-7.5-7.5zm-25-48.75c-4.142 0-7.5 3.358-7.5 7.5s3.358 7.5 7.5 7.5 7.5-3.358 7.5-7.5-3.358-7.5-7.5-7.5zm0 48.75c-4.142 0-7.5 3.358-7.5 7.5s3.358 7.5 7.5 7.5 7.5-3.358 7.5-7.5-3.358-7.5-7.5-7.5zm-25-48.75c-4.142 0-7.5 3.358-7.5 7.5s3.358 7.5 7.5 7.5 7.5-3.358 7.5-7.5-3.358-7.5-7.5-7.5zm27.5 106.25c0-4.142 3.358-7.5 7.5-7.5h43.842c.354 4.962.567 9.963.635 15h-44.477c-4.142 0-7.5-3.358-7.5-7.5zm32.5 15h-25c-4.142 0-7.5 3.358-7.5 7.5s3.358 7.5 7.5 7.5h25c4.142 0 7.5-3.358 7.5-7.5s-3.358-7.5-7.5-7.5z" fill="#7cd2e3"/><path d="m443.778 430c-46.756 50.435-113.58 82-187.778 82s-141.022-31.565-187.778-82z" fill="#ffc14f"/><path d="m180 430h263.778c-34.659 37.386-80.346 64.403-131.889 75.881-51.543-11.478-97.23-38.495-131.889-75.881z" fill="#ffcd71"/></g></svg>